<svg width="50" height="50" viewBox="0 0 50 50" fill="none" xmlns="http://www.w3.org/2000/svg">
<g filter="url(#filter0_d_139_10861)">
<rect width="42" height="42" rx="21" transform="matrix(-1 0 0 1 46 4)" fill="white"/>
<path d="M28.4498 25.0001L21.0998 32.3501C20.8498 32.6001 20.729 32.8918 20.7373 33.2251C20.7456 33.5584 20.8748 33.8501 21.1248 34.1001C21.3748 34.3501 21.6665 34.4751 21.9998 34.4751C22.3331 34.4751 22.6248 34.3501 22.8748 34.1001L30.5748 26.4251C30.7748 26.2251 30.9248 26.0001 31.0248 25.7501C31.1248 25.5001 31.1748 25.2501 31.1748 25.0001C31.1748 24.7501 31.1248 24.5001 31.0248 24.2501C30.9248 24.0001 30.7748 23.7751 30.5748 23.5751L22.8748 15.8751C22.6248 15.6251 22.329 15.5043 21.9873 15.5126C21.6456 15.5209 21.3498 15.6501 21.0998 15.9001C20.8498 16.1501 20.7248 16.4418 20.7248 16.7751C20.7248 17.1084 20.8498 17.4001 21.0998 17.6501L28.4498 25.0001Z" fill="#23A6F0"/>
</g>
<defs>
<filter id="filter0_d_139_10861" x="0" y="0" width="50" height="50" filterUnits="userSpaceOnUse" color-interpolation-filters="sRGB">
<feFlood flood-opacity="0" result="BackgroundImageFix"/>
<feColorMatrix in="SourceAlpha" type="matrix" values="0 0 0 0 0 0 0 0 0 0 0 0 0 0 0 0 0 0 127 0" result="hardAlpha"/>
<feOffset/>
<feGaussianBlur stdDeviation="2"/>
<feColorMatrix type="matrix" values="0 0 0 0 0 0 0 0 0 0 0 0 0 0 0 0 0 0 0.3 0"/>
<feBlend mode="normal" in2="BackgroundImageFix" result="effect1_dropShadow_139_10861"/>
<feBlend mode="normal" in="SourceGraphic" in2="effect1_dropShadow_139_10861" result="shape"/>
</filter>
</defs>
</svg>
